<svg width="73" height="84" fill="none" xmlns="http://www.w3.org/2000/svg"><path d="M44.758 73.58H21.215c-7.508.764-12.916 8.4-10.689 8.4 47.975 0 45.112.127 45.366-.255.764-1.145-4.39-7.572-11.134-8.144zm18.579-27.232a41.856 41.856 0 0 1-10.372 20.297" stroke="#34A5BE" stroke-width="3" stroke-miterlimit="10" stroke-linecap="round" stroke-linejoin="round"/><path d="M63.337 46.348c.7-2.8.7-5.917.7-5.98 0-.828 3.245-.573-61.464-.573a.57.57 0 0 0-.573.572c0 .191.064 20.488 18.961 33.087.19.127 23.797.19 24.051 0 1.527-1.018 5.345-4.136 7.89-6.809" stroke="#34A5BE" stroke-width="3" stroke-miterlimit="10" stroke-linecap="round" stroke-linejoin="round"/><path d="M63.464 45.648h2.863c3.436 0 5.472 3.055 4.263 6.3L69 57.356c-1.464 3.881-5.154 6.49-9.29 6.49h-3.627M32.287 32.86S46.92 10.97 15.234 5.753c0 0-8.78 25.515 17.053 27.105z" stroke="#34A5BE" stroke-width="3" stroke-miterlimit="10" stroke-linecap="round" stroke-linejoin="round"/><path d="M36.74 32.541C60.855 29.041 52.203 2 52.203 2 42.467 3.273 36.868 6.9 33.75 9.826M32.286 32.86s-2.29-7.381-9.29-16.544m22.398-3.372s-7.38 3.372-9.99 12.09" stroke="#34A5BE" stroke-width="3" stroke-miterlimit="10" stroke-linecap="round" stroke-linejoin="round"/></svg>