<svg width="87" height="76" fill="none" xmlns="http://www.w3.org/2000/svg"><path d="M30.405 9.442a.416.416 0 0 0-.387-.387.417.417 0 0 0-.387.387c0 .194.193.388.387.388.258 0 .387-.13.387-.388zm47.321.517a.417.417 0 0 0-.387-.388.416.416 0 0 0-.388.388c0 .193.194.387.388.387.194.065.387-.129.387-.387z" stroke="#34A5BE" stroke-width="3" stroke-miterlimit="10"/><path d="M2 74h79.664" stroke="#34A5BE" stroke-width="3" stroke-miterlimit="10" stroke-linecap="round"/><path d="M10.78 38.622H2v27.954h8.78V38.622zm70.949-14.525h-8.78v42.479h8.78v-42.48zm-47.321-.517h-8.78v42.996h8.78V23.58zm1.641-12.71a6.198 6.198 0 1 0-12.067-2.837A6.198 6.198 0 0 0 36.05 10.87zm42.571 5.142a6.197 6.197 0 1 0-2.578-12.123 6.197 6.197 0 0 0 2.578 12.123zM58.1 37.008h-8.78v29.568h8.78V37.008zm-4.454-10.393a3.744 3.744 0 1 0 0-7.489 3.744 3.744 0 0 0 0 7.489zm-43.512-2.131A3.747 3.747 0 0 0 6.39 20.74a3.747 3.747 0 0 0-3.744 3.744A3.747 3.747 0 0 0 6.39 28.23a3.747 3.747 0 0 0 3.744-3.745zm-.968-2.453l15.494-9.425m11.104-.776l14.202 8.91m6.973.387l14.783-8.457" stroke="#34A5BE" stroke-width="3" stroke-miterlimit="10"/></svg>