<svg width="77" height="84" fill="none" xmlns="http://www.w3.org/2000/svg"><path d="M38.512 44.23v6.16a5.337 5.337 0 0 1-5.342 5.341H12.62a5.337 5.337 0 0 0-5.341 5.342v5.53" stroke="#34A5BE" stroke-width="3" stroke-miterlimit="10" stroke-linecap="round" stroke-linejoin="round"/><path d="M38.512 44.23v6.16a5.337 5.337 0 0 0 5.342 5.341h20.55a5.337 5.337 0 0 1 5.342 5.342v5.53" stroke="#34A5BE" stroke-width="3" stroke-miterlimit="10" stroke-linecap="round" stroke-linejoin="round"/><path d="M48.127 55.731a4.64 4.64 0 0 1 4.65 4.65v6.16m-23.88-10.81a4.64 4.64 0 0 0-4.65 4.65v6.16m31.736 4.839h-6.347a2.119 2.119 0 0 0-2.137 2.136v6.347c0 1.194.942 2.137 2.136 2.137h6.348a2.12 2.12 0 0 0 2.136-2.137v-6.347c0-1.131-.942-2.137-2.136-2.137zm16.905 0H66.54a2.119 2.119 0 0 0-2.136 2.136v6.347A2.12 2.12 0 0 0 66.54 82h6.348a2.12 2.12 0 0 0 2.136-2.137v-6.347c.063-1.131-.942-2.137-2.136-2.137zm-62.404 0H4.137A2.119 2.119 0 0 0 2 73.515v6.347A2.12 2.12 0 0 0 4.137 82h6.347a2.12 2.12 0 0 0 2.137-2.137v-6.347c.062-1.131-.943-2.137-2.137-2.137zm16.968 0h-6.348a2.119 2.119 0 0 0-2.136 2.136v6.347c0 1.194.942 2.137 2.137 2.137h6.347a2.12 2.12 0 0 0 2.136-2.137v-6.347c0-1.131-.942-2.137-2.136-2.137zm-5.028-58.131c-3.393 0-6.221 2.702-6.347 6.096v.251l-.251.063c-3.897 1.508-6.599 5.405-6.599 9.678 0 5.719 4.65 10.432 10.432 10.432h34.438c2.451 0 4.84-.628 6.976-1.885 4.148-2.451 6.787-6.976 6.787-11.815 0-7.541-6.158-13.7-13.7-13.7h-.314l-.126-.251C51.458 6.085 45.676 2 39.266 2c-6.85 0-12.945 4.588-14.83 11.186l-.127.314-.314-.063a6.335 6.335 0 0 0-1.57-.188z" stroke="#34A5BE" stroke-width="3" stroke-miterlimit="10" stroke-linecap="round" stroke-linejoin="round"/></svg>