<svg width="94" height="77" fill="none" xmlns="http://www.w3.org/2000/svg"><path d="M79.73 12.97H42.779m-.001 7.795H79.73M42.778 28.56H79.73M14.125 46.603H51.15m-37.025 7.795H51.15M30.58 4.31v32.91a2.28 2.28 0 0 0 2.31 2.31h50.377c.577 0 1.227.217 1.588.65L92 47.325V4.31C92 3.01 90.99 2 89.69 2H32.818c-1.227 0-2.237 1.01-2.237 2.31z" stroke="#71717E" stroke-width="3" stroke-miterlimit="10" stroke-linecap="round"/><path d="M63.347 39.53v23.53a2.28 2.28 0 0 1-2.31 2.31H10.734c-.577 0-1.227.216-1.588.649L2 73.163V30.148c0-1.3 1.01-2.31 2.31-2.31h26.343" stroke="#71717E" stroke-width="3" stroke-miterlimit="10" stroke-linecap="round"/></svg>